PathFileType	4	(X/Y/Z)	c:\Git\powerlifing_model_clean\simulations\HC835B\Session1\HC835B_OGW_0002\marker_experimental.trc
DataRate	CameraRate	NumFrames	NumMarkers	Units	OrigDataRate	OrigDataStartFrame	OrigNumFrames
240.000000	240.000000	4	38	mm	240.000000	0	436
Frame#	Time	RPSI			LPSI			RASI			LASI			RTH1			RTH2			RTH3			RTH4			RSK1			RSK2			RSK3			RSK4			RCAL1			RCAL2			RCAL3			RST			RPT			RTN			RFMB			RSMB			RVMB			RFMH			RSMH			RVMH			RPM			LTH1			LTH2			LTH3			LTH4			LSK1			LSK2			LSK3			LSK4			LCAL1			LCAL2			LCAL3			LFMH			LVMH			
		X1	Y1	Z1	X2	Y2	Z2	X3	Y3	Z3	X4	Y4	Z4	X5	Y5	Z5	X6	Y6	Z6	X7	Y7	Z7	X8	Y8	Z8	X9	Y9	Z9	X10	Y10	Z10	X11	Y11	Z11	X12	Y12	Z12	X13	Y13	Z13	X14	Y14	Z14	X15	Y15	Z15	X16	Y16	Z16	X17	Y17	Z17	X18	Y18	Z18	X19	Y19	Z19	X20	Y20	Z20	X21	Y21	Z21	X22	Y22	Z22	X23	Y23	Z23	X24	Y24	Z24	X25	Y25	Z25	X26	Y26	Z26	X27	Y27	Z27	X28	Y28	Z28	X29	Y29	Z29	X30	Y30	Z30	X31	Y31	Z31	X32	Y32	Z32	X33	Y33	Z33	X34	Y34	Z34	X35	Y35	Z35	X36	Y36	Z36	X37	Y37	Z37	X38	Y38	Z38	

1	0	476.3856201171876	1108.373413085938	-2530.352783203125	587.1649169921876	1113.581176757813	-2531.718994140625	426.754852294922	1068.169921875	-2321.776123046875	669.2053833007814	1062.601928710938	-2327.817138671875	343.2618713378907	807.2532958984377	-2302.1552734375	352.6109924316407	821.1171875000002	-2243.39794921875	350.0466918945313	742.5029907226564	-2248.07568359375	370.1914062500001	753.6884765625001	-2193.67138671875	392.5941772460939	298.0936889648438	-2189.31005859375	381.7779235839844	300.2358703613282	-2127.445068359375	394.0174865722657	248.2117919921876	-2157.883056640625	395.1619873046876	252.5207214355469	-2096.974609375	459.2016601562501	91.22960662841798	-2161.59716796875	494.121307373047	62.74543380737306	-2139.760986328125	432.3814697265626	50.8548927307129	-2151.083251953125	495.207733154297	97.58044433593753	-2079.41015625	397.6963500976564	71.72502899169923	-2100.462158203125	467.5694580078126	125.1934661865235	-2031.820190429688	462.2082519531251	115.9415664672852	-1996.887573242188	410.7121582031251	133.2936248779297	-1999.270141601563	384.4367675781251	55.89949035644533	-2052.181640625	461.8938293457032	99.44836425781253	-1937.41796875	404.738250732422	110.953239440918	-1935.445068359375	361.3796081542969	64.51708984375001	-1976.162353515625	406.4801635742189	119.3456039428711	-1879.339965820313	722.8669433593751	799.4122314453127	-2472.099609375	712.9002075195314	775.6054687500002	-2416.94189453125	710.5374145507814	714.4349975585939	-2470.560302734375	685.5676269531251	693.8729248046876	-2418.5751953125	661.4466552734376	291.0574035644532	-2665.4208984375	667.7283935546876	261.5473327636719	-2620.88037109375	656.8279418945314	233.6220092773438	-2661.4462890625	648.0805053710939	206.1585693359376	-2612.644775390625	594.9042968750001	90.69526672363283	-2747.40576171875	625.6087646484376	54.64009094238283	-2750.74072265625	568.2642822265626	50.34215927124025	-2744.48583984375	580.0201416015626	47.45355987548829	-2519.325439453125	682.9478759765626	26.88822174072266	-2566.1494140625	
2	0.004166666666666667	475.9288330078126	1106.689453125	-2523.2001953125	586.6127319335939	1112.213134765625	-2524.677490234375	426.3500061035157	1066.3623046875	-2314.434814453125	669.0594482421876	1060.882934570313	-2320.86474609375	344.2541198730469	804.1504516601565	-2296.951171875	353.3958740234376	817.6707153320315	-2238.0361328125	351.3116455078126	739.0657958984376	-2243.274169921875	371.2904968261719	750.0281982421876	-2188.771484375	392.2857055664064	295.7934875488282	-2176.81298828125	381.9463806152344	299.5420227050782	-2115.0791015625	394.0576171875001	246.8200073242188	-2143.98681640625	395.9506225585939	251.9948425292969	-2083.934326171875	458.482391357422	88.81623840332033	-2143.51806640625	493.2349853515626	60.84323120117189	-2120.7470703125	431.4278869628907	48.91322326660158	-2131.697998046875	494.544158935547	97.60793304443362	-2061.4267578125	396.8162841796876	71.45853424072267	-2081.800048828125	467.0544433593751	126.5619125366211	-2014.661254882813	461.2839660644532	118.8828887939453	-1978.827514648438	410.0503234863282	136.0440979003907	-1982.50537109375	383.3813171386719	57.2926712036133	-2033.15283203125	461.0199584960939	103.6512222290039	-1919.512451171875	403.9765625000001	115.6011505126953	-1917.942016601563	360.2730712890626	68.24149322509767	-1957.435791015625	405.4790649414064	125.5227279663086	-1862.161499023438	722.6898193359376	798.769714355469	-2466.7138671875	712.9287109375001	774.6499633789065	-2411.7099609375	710.5131835937501	713.8631591796876	-2465.7158203125	685.7116088867189	693.0131835937501	-2413.763671875	661.2608642578126	291.6889343261719	-2663.578125	667.7119750976564	261.8843688964844	-2619.260986328125	656.6489868164064	234.2493896484376	-2660.023193359375	648.0591430664064	206.4093780517579	-2611.41357421875	594.7744750976564	91.69085693359376	-2746.962158203125	625.4038085937501	55.54920959472658	-2750.385986328125	568.0506591796876	51.28510665893556	-2744.151611328125	580.1004638671876	47.38869094848634	-2519.025390625	682.5856323242189	26.69323348999024	-2566.254150390625	
3	0.008333333333333333	475.4690856933595	1104.943115234375	-2516.0107421875	586.0690917968751	1110.81396484375	-2517.6162109375	425.9832458496095	1064.553344726563	-2307.21240234375	668.9323730468751	1059.250732421875	-2313.894775390625	345.1116027832032	800.9961547851565	-2291.7373046875	354.2058105468751	814.0826416015627	-2232.79345703125	352.4544067382813	735.5711669921876	-2238.588623046875	372.3935852050782	746.2136230468751	-2184.014404296875	392.525115966797	293.5248413085938	-2164.486572265625	382.2124938964844	298.9815368652344	-2102.861328125	394.2461853027345	245.4571990966797	-2130.603515625	396.371063232422	251.8278198242188	-2070.6025390625	458.0474243164064	86.38726806640626	-2125.648193359375	492.4552001953126	59.10315322875978	-2102.028564453125	430.5414123535157	47.42231369018555	-2112.822509765625	494.0228271484376	97.66275024414065	-2043.869873046875	396.2044067382814	71.99617004394533	-2063.577880859375	466.6826477050782	128.1349639892578	-1997.91552734375	461.5642395019532	121.4945983886719	-1962.504028320313	409.6697387695314	138.8779754638672	-1966.299926757813	382.4719238281251	58.96926498413087	-2014.572998046875	460.3546447753907	108.010726928711	-1902.158935546875	403.3615722656251	120.3700103759766	-1901.06640625	359.3293762207032	72.27400207519533	-1939.258056640625	404.8529663085939	132.101058959961	-1845.519775390625	722.6273803710939	798.2242431640627	-2461.341552734375	713.0225830078126	773.781433105469	-2406.478515625	710.4197387695314	713.2164916992189	-2460.8564453125	685.8859252929689	692.0147705078126	-2408.958740234375	661.1074218750001	292.3266296386719	-2661.6376953125	667.7134399414064	262.2582702636719	-2617.607666015625	656.5991821289064	234.8598937988282	-2658.5263671875	648.0265502929689	206.6481323242188	-2610.121337890625	594.6245727539064	92.67951965332033	-2746.396484375	625.2761840820314	56.51464080810548	-2750.06787109375	567.9210815429689	52.325496673584	-2743.870849609375	580.2286987304689	47.30273056030274	-2518.676513671875	682.5645751953126	26.62203025817872	-2566.2333984375	
4	0.0125	475.0152282714845	1103.192749023438	-2508.812744140625	585.5604858398439	1109.352905273438	-2510.5615234375	425.5908508300782	1062.849365234375	-2299.870849609375	668.8336181640626	1057.567749023438	-2306.915283203125	345.7470703125001	797.8310546875002	-2286.564208984375	354.9460144042969	810.5249023437502	-2227.51806640625	353.4923400878907	732.0547485351564	-2233.9462890625	373.5250244140626	742.2877197265626	-2179.342529296875	392.6989135742189	291.4572448730469	-2152.311279296875	382.5450744628907	298.5300598144532	-2090.765380859375	392.2102661132814	245.8011779785157	-2116.091552734375	396.713592529297	251.6643066406251	-2057.762451171875	458.1997680664064	85.23076629638673	-2108.205322265625	491.8554077148439	57.66553878784181	-2083.85546875	429.9135131835939	46.35131072998048	-2094.43994140625	493.7837829589845	98.11299896240237	-2026.8857421875	395.6110839843751	72.3101043701172	-2045.896484375	466.5865173339845	129.7281036376953	-1981.691162109375	460.8192138671876	123.4926223754883	-1946.361572265625	409.4747619628907	141.7132110595703	-1950.567504882813	381.7269897460938	60.98066711425783	-1996.522827148438	459.8896789550782	112.3709182739258	-1885.425537109375	402.9989318847657	125.1701354980469	-1884.729125976563	358.5609436035157	76.56662750244142	-1921.652221679688	404.5203552246095	138.291748046875	-1829.630249023438	722.5812377929689	797.637878417969	-2455.976806640625	713.0899658203126	772.856628417969	-2401.20361328125	710.2476806640626	712.7700195312501	-2455.984619140625	686.0773315429689	691.1229858398439	-2404.013916015625	661.0515747070314	292.9903869628907	-2659.59130859375	667.6853027343751	262.5387573242188	-2615.814697265625	656.5542602539064	235.4652252197266	-2656.9326171875	648.1365966796876	207.0127105712891	-2608.746826171875	594.6019287109376	93.74236297607423	-2745.91357421875	625.2005615234376	57.5787696838379	-2749.732177734375	567.8090820312501	53.37507247924806	-2743.486572265625	580.3567504882814	47.25428771972657	-2518.369140625	682.5856933593751	26.5868091583252	-2566.125732421875	
